<svg xmlns="http://www.w3.org/2000/svg" xmlns:xlink="http://www.w3.org/1999/xlink" aria-hidden="true" role="img" class="iconify iconify--logos" width="32" height="32" preserveAspectRatio="xMidYMid meet" viewBox="0 0 256 256"><path fill="#BD34FE" d="M236.425 57.098c-10.59-19.16-34.925-24.814-53.228-12.87L158.4 62.435l-21.756-37.15c-5.748-9.92-15.34-15.316-25.138-15.316s-19.39 5.396-25.138 15.315L5.756 168.086c-4.99 8.613-5.286 18.526-1.396 27.88c3.89 9.352 11.558 16.59 21.056 20.038l97.88 35.15c2.31 1.05 4.975 1.05 7.286 0l90.96-32.93c10.155-2.73 17.702-10.82 20.738-20.932c3.033-10.11.83-21.65-6.3-29.35l-74.62-80.44l35.786-22.956c12.2-7.854 18.966-21.378 17.514-35.087c-1.45-13.71-9.91-25.56-21.574-30.136zM32.89 191.076L86.37 62.88L126.91 133.1L32.89 191.076zm106.96 55.4l-30.37-12.98L44.5 197.108l88.92-54.83l91.135 98.243l-84.698 30.666l-.007-.01zM118.665 41.6l49.49 89.846l-65.71-39.6L118.664 41.6zm103.5 146.68l-81.82-87.17l64.12 40.23c2.47 2.66 4.3 5.378 4.78 8.43c.48 3.05-.2 6.096-2.52 7.82l-37.36 29.808l52.8 28.52v-27.64z"></path></svg>
